HIERARCHY
ROOT Hips
{
  OFFSET 263.056 91.6644 -274.608
  CHANNELS 6 Xposition Yposition Zposition Zrotation Xrotation Yrotation
  JOINT LeftUpLeg
  {
    OFFSET 8.64259 1.95398 -2.38835
    CHANNELS 3 Zrotation Xrotation Yrotation
    JOINT LeftLeg
    {
      OFFSET 43.7702 0 0
      CHANNELS 3 Zrotation Xrotation Yrotation
      JOINT LeftFoot
      {
        OFFSET 40.6238 0 0
        CHANNELS 3 Zrotation Xrotation Yrotation
        JOINT LeftToeBase
        {
          OFFSET 12.7242 0 0
          CHANNELS 3 Zrotation Xrotation Yrotation
          End Site
          {
            OFFSET 0 0 0
          }
        }
      }
    }
  }
  JOINT RightUpLeg
  {
    OFFSET -8.2249 1.95398 -2.59336
    CHANNELS 3 Zrotation Xrotation Yrotation
    JOINT RightLeg
    {
      OFFSET 43.5653 0 0
      CHANNELS 3 Zrotation Xrotation Yrotation
      JOINT RightFoot
      {
        OFFSET 40.6238 0 0
        CHANNELS 3 Zrotation Xrotation Yrotation
        JOINT RightToeBase
        {
          OFFSET 12.7242 0 0
          CHANNELS 3 Zrotation Xrotation Yrotation
          End Site
          {
            OFFSET 0 0 0
          }
        }
      }
    }
  }
  JOINT Spine
  {
    OFFSET 0.165834 0.87714 6.61349
    CHANNELS 3 Zrotation Xrotation Yrotation
    JOINT Spine1
    {
      OFFSET 7.38963 1.71661e-005 0
      CHANNELS 3 Zrotation Xrotation Yrotation
      JOINT Spine2
      {
        OFFSET 11.9445 1.14441e-005 0
        CHANNELS 3 Zrotation Xrotation Yrotation
        JOINT Spine3
        {
          OFFSET 14.7254 4.19617e-005 0
          CHANNELS 3 Zrotation Xrotation Yrotation
          JOINT Spine4
          {
            OFFSET 10.9679 0 0
            CHANNELS 3 Zrotation Xrotation Yrotation
            JOINT RightShoulder
            {
              OFFSET 2.46616 -1.6653 3.69651
              CHANNELS 3 Zrotation Xrotation Yrotation
              JOINT RightArm
              {
                OFFSET 13.0012 0 0
                CHANNELS 3 Zrotation Xrotation Yrotation
                JOINT RightForeArm
                {
                  OFFSET 28.7848 1.52588e-005 0
                  CHANNELS 3 Zrotation Xrotation Yrotation
                  JOINT RightHand
                  {
                    OFFSET 26.5688 1.52588e-005 0
                    CHANNELS 3 Zrotation Xrotation Yrotation
                    End Site
                    {
                      OFFSET 0 0 0
                    }
                  }
                }
              }
            }
            JOINT LeftShoulder
            {
              OFFSET 2.38034 -1.29275 -3.7523
              CHANNELS 3 Zrotation Xrotation Yrotation
              JOINT LeftArm
              {
                OFFSET 16.3182 6.10352e-005 0
                CHANNELS 3 Zrotation Xrotation Yrotation
                JOINT LeftForeArm
                {
                  OFFSET 27.0901 0 0
                  CHANNELS 3 Zrotation Xrotation Yrotation
                  JOINT LeftHand
                  {
                    OFFSET 24.5451 1.52588e-005 0
                    CHANNELS 3 Zrotation Xrotation Yrotation
                    End Site
                    {
                      OFFSET 0 0 0
                    }
                  }
                }
              }
            }
            JOINT Neck
            {
              OFFSET 5.0226 -0.0266342 0
              CHANNELS 3 Zrotation Xrotation Yrotation
              JOINT Head
              {
                OFFSET 6.69364 2.86102e-005 0
                CHANNELS 3 Zrotation Xrotation Yrotation
                End Site
                {
                  OFFSET 0 0 0
                }
              }
            }
          }
        }
      }
    }
  }
}
MOTION
Frames:	15
Frame Time:	0.0416667
153.374 10.7331 147.359 3.65416 -6.79158 43.2152 -172.668 1.75205 89.6906 -17.2935 24.286 -1.67329 53.8953 -2.21622 5.49554 68.9635 60.7309 24.5841 178.432 6.33261 85.4829 -31.5609 -15.786 -6.98601 64.8635 -0.99612 -0.538536 61.2722 8.49157 27.7596 -2.30941 10.7492 -94.6667 5.02211 -6.53504 -9.05268 -6.66193 -6.92562 -8.75854 -28.9931 -3.52986 -10.5822 -8.98044 -3.52986 -10.5822 83.49 55.807 -27.1145 49.1307 -30.4788 -50.4189 -59.6029 41.7399 -107.234 -56.7679 -11.0248 20.1744 -74.9382 -63.7098 100.922 -16.8036 -51.5561 18.5699 22.2599 -19.3208 -159.908 59.7247 18.5227 26.0777 79.2139 30.1843 43.4408 3.32661 -10.5829 -38.0435 
153.455 10.7735 147.442 3.75677 -6.84417 43.2079 -172.69 1.54764 89.5863 -17.249 24.6131 -1.66636 52.2418 -3.49205 6.0499 70.84 57.5521 17.971 178.231 6.31242 85.4622 -31.2725 -14.6495 -6.74925 63.9145 -0.557175 -0.261209 61.9243 9.10463 29.6254 -2.3572 10.7281 -94.7132 5.05518 -6.65099 -9.13991 -6.62885 -7.04524 -8.84066 -28.9573 -3.61479 -10.6997 -8.94468 -3.61479 -10.6997 82.7636 56.5063 -26.7167 49.4972 -31.0306 -50.1131 -60.0556 42.1206 -106.619 -56.8124 -11.0896 20.3005 -74.8925 -64.0037 100.971 -16.8388 -51.825 18.8128 22.1231 -18.6907 -159.878 60.1574 18.4355 25.6935 78.7566 30.6363 44.1003 2.96772 -10.3786 -38.1316 
153.453 10.7717 147.434 3.66314 -6.82863 43.1992 -172.634 1.71635 89.6139 -17.4241 24.4895 -1.71138 52.3565 -3.44681 5.98115 71.3502 57.84 17.5466 178.361 6.35915 85.4796 -31.1387 -14.4213 -6.81729 62.7991 -0.127717 0.00551322 70.0847 10.4799 24.8093 -2.34163 10.6699 -94.7244 5.172 -6.62918 -9.15462 -6.51224 -7.0241 -8.85633 -28.8392 -3.58962 -10.7072 -8.82664 -3.58964 -10.7072 82.1642 57.1935 -26.6279 49.9362 -31.3291 -49.5274 -60.4822 42.3095 -106.362 -57.0072 -11.1122 20.2755 -75.4406 -64.267 100.251 -16.1049 -52.0385 19.5017 22.1801 -18.65 -159.812 60.2896 18.3738 25.5221 78.3539 30.8341 44.5341 4.16523 -10.6657 -37.9857 
153.452 10.7926 147.433 3.6791 -6.94531 43.2117 -172.609 1.66626 89.5962 -17.5508 24.6035 -1.74538 52.4324 -3.13784 7.05058 72.0958 57.9201 16.5149 178.451 6.23941 85.5299 -31.0093 -14.3561 -6.89241 62.8581 -0.185629 -0.0331818 69.6959 10.5885 25.6153 -2.35226 10.576 -94.7471 5.35702 -6.66713 -9.18573 -6.32725 -7.06336 -8.88575 -28.6532 -3.61667 -10.748 -8.64058 -3.61668 -10.748 80.8773 58.7243 -26.6123 50.946 -31.7639 -48.5607 -60.84 42.2539 -106.078 -56.6275 -10.9996 20.2408 -76.2344 -64.5875 99.2169 -14.6506 -52.5147 20.9758 21.9334 -18.0317 -159.925 60.4382 18.3642 25.4236 75.124 32.7644 46.3619 4.02422 -8.66593 -38.5555 
153.406 10.821 147.408 3.84577 -6.94897 43.1579 -172.633 1.72512 89.515 -17.8664 24.7129 -1.77691 52.3281 -3.10985 7.54826 71.659 57.9508 17.2143 178.334 6.24096 85.4203 -31.3095 -14.6013 -6.88724 63.132 -0.262367 -0.0820228 69.0471 10.4865 25.9383 -2.38163 10.4685 -94.7839 5.56621 -6.74953 -9.24228 -6.11799 -7.14814 -8.93865 -28.4424 -3.67865 -10.8263 -8.42976 -3.67864 -10.8263 79.3665 60.7151 -27.0106 52.68 -31.9071 -45.893 -60.8421 42.6398 -106.167 -56.3107 -11.3842 21.1753 -77.5408 -65.013 97.5292 -12.5123 -53.1465 23.5258 21.6671 -17.3063 -160.212 59.6367 18.245 25.6866 73.5958 33.1019 48.0217 5.2111 -9.28571 -38.8352 
153.407 10.8598 147.46 3.70524 -6.96108 43.0703 -172.565 1.71313 89.4431 -17.6747 23.5784 -1.79097 52.1572 -3.31787 7.08265 75.7856 58.1596 11.3701 178.253 6.3587 85.2881 -31.1439 -14.6292 -6.79243 62.5797 -0.0608449 0.045974 69.8123 11.0005 26.7602 -2.40106 10.3012 -94.8739 5.89017 -6.83895 -9.39485 -5.79463 -7.24408 -9.08726 -28.1115 -3.71901 -10.9979 -8.09885 -3.71899 -10.9979 77.1079 63.6577 -27.6331 55.2998 -31.1623 -42.6366 -61.1381 43.2957 -106.41 -55.8891 -11.1174 20.9109 -78.2096 -65.6416 96.6747 -12.287 -52.2495 24.2237 21.9801 -17.3157 -159.546 59.8999 17.9016 24.9939 71.5724 33.6496 50.4257 4.50056 -9.49829 -39.5201 
153.425 10.893 147.457 3.71002 -7.05429 43.034 -172.551 1.64913 89.3322 -17.825 22.9027 -1.78939 52.7317 -2.77345 7.00335 74.7425 57.3601 11.8601 178.321 6.34486 85.2868 -31.3302 -14.9249 -6.91344 62.7374 -0.125963 0.00546227 68.6815 10.4811 26.2839 -2.41199 10.1578 -94.9514 6.16806 -6.90466 -9.52636 -5.51727 -7.31546 -9.21588 -27.8273 -3.74296 -11.1424 -7.81459 -3.74294 -11.1424 74.9461 66.092 -27.6879 58.2261 -31.1992 -39.0348 -60.9047 43.8224 -106.934 -55.8738 -10.9752 20.639 -79.7989 -66.4441 94.6678 -9.78953 -53.2119 27.1812 21.5926 -16.27 -159.828 59.8314 17.7489 24.7877 69.4781 34.2782 52.7553 5.0955 -9.90451 -41.1049 
153.402 10.9343 147.372 3.74752 -7.25171 42.9362 -172.467 1.16088 89.2242 -17.088 22.4747 -1.80558 52.7332 -3.12711 5.1593 71.6911 57.5099 16.6151 178.244 6.43032 85.1496 -31.7316 -15.0056 -7.0267 62.8572 -0.0938301 0.0272991 69.4769 10.6123 25.9022 -2.45894 10.0048 -95.0865 6.4551 -7.06723 -9.76709 -5.23104 -7.48833 -9.44944 -27.5292 -3.82725 -11.4194 -7.51655 -3.82723 -11.4194 71.8278 68.5481 -26.3571 59.4758 -31.325 -38.8737 -63.003 44.2054 -105.572 -54.0478 -11.1171 21.9782 -81.6308 -67.5711 92.4085 -7.28711 -54.9912 30.6594 21.3101 -15.1892 -160.181 58.6673 17.4246 24.9133 66.6597 35.2681 55.9267 5.24784 -9.95679 -42.8417 
153.494 11.0009 147.374 4.16854 -7.36423 42.9053 -172.588 1.15246 89.0781 -17.9087 23.1997 -1.81932 52.8966 -2.68901 6.83138 70.355 56.5016 17.4136 177.972 5.87719 84.9303 -31.2764 -15.0491 -6.83252 62.7905 -0.139447 -0.00325248 69.3156 10.7316 26.4309 -2.53614 9.84667 -95.2584 6.74508 -7.30657 -10.0765 -4.94199 -7.74086 -9.74823 -27.2253 -3.96472 -11.7844 -7.21271 -3.96472 -11.7844 67.6151 71.3478 -24.2374 60.5611 -30.9291 -37.159 -63.1839 44.5172 -105.422 -53.3551 -10.9428 21.9852 -83.3932 -68.6164 90.2821 -5.41166 -54.6085 33.0495 20.9846 -13.7824 -159.872 59.0658 17.1435 24.2377 63.9468 36.0301 59.3519 5.6493 -10.2982 -43.5374 
153.449 11.0406 147.332 3.97743 -7.71452 42.9918 -172.463 1.08875 89.2386 -18.0018 23.7494 -1.89053 52.808 -2.62024 7.52706 72.203 56.5232 14.5878 178.164 5.88062 85.1207 -31.5131 -14.9903 -7.02932 62.7214 -0.0891621 0.0326999 67.381 10.9199 29.0732 0.612017 8.68137 -84.0205 8.20661 3.81575 11.8688 -3.51946 4.3294 11.6929 -25.5309 0.115921 12.4601 -5.51825 0.115921 12.4601 130.373 -85.6159 -51.1457 -1.13559 12.9954 13.2858 -34.5256 33.3098 -132.272 -59.2995 -11.4696 19.1564 -85.0356 51.8444 121.573 -45.7631 6.18868 -5.49451 42.9615 -42.1082 -137.025 52.0265 16.6886 27.6134 12.3512 -25.9804 -76.3601 31.5029 -0.821037 18.643 
153.381 11.1588 147.277 4.37876 -8.01848 42.9811 -172.442 0.496987 89.0915 -17.7821 23.1051 -1.81808 53.4349 -2.08933 6.93693 68.9687 57.0719 20.2932 177.953 5.64233 84.9697 -31.9802 -15.482 -7.018 63.6007 -0.413474 -0.170946 67.677 10.4126 27.1078 0.234863 9.08858 -84.6633 8.44991 2.82127 10.382 -3.25827 3.27304 10.2498 -25.4613 -0.409659 10.7467 -5.44861 -0.409678 10.7467 96.1139 -76.0563 -88.935 3.12412 9.93043 10.3125 -36.6295 34.9495 -130.168 -58.3244 -11.5409 19.8405 -80.533 46.1986 114.946 -44.1975 0.987875 -4.3418 40.2848 -39.6144 -138.836 52.3729 17.2243 28.3913 25.1412 -28.4893 -68.2537 29.8279 -0.89359 14.3075 
153.406 11.3641 147.18 4.29754 -8.9853 42.7042 -172.293 -0.190265 88.7962 -17.7317 21.9194 -1.95048 53.4705 -1.87206 7.27266 68.9733 56.4563 19.5329 177.791 5.34474 84.6029 -32.0996 -15.2733 -7.09371 62.7348 -0.0689733 0.0472132 69.9577 10.361 24.6854 0.217384 9.01524 -84.736 8.60375 2.76121 10.24 -3.10349 3.20688 10.1105 -25.3155 -0.425108 10.5935 -5.30282 -0.425105 10.5934 96.6688 -75.7568 -88.3132 3.3281 8.03982 8.548 -41.2781 38.2412 -126.337 -57.3611 -11.3176 20.1034 -80.2895 44.614 115.577 -43.6238 -2.31235 -5.13886 36.6311 -37.2141 -141.436 46.3193 15.0078 28.2746 25.5315 -27.7065 -67.4484 28.3052 -0.252845 14.0493 
153.63 11.545 146.921 4.43937 -10.2282 42.7118 -172.449 -1.28648 88.5661 -17.4596 23.358 -1.91551 53.0895 -1.70101 9.21034 69.0318 56.4615 19.4479 176.758 4.59751 83.8105 -32.0747 -16.1484 -6.46893 62.5908 -0.0149672 0.0838737 71.9149 10.0966 22.1557 0.137219 9.02261 -84.9639 8.61555 2.50135 9.80502 -3.08901 2.92841 9.68709 -25.3278 -0.544719 10.1015 -5.3152 -0.54473 10.1015 94.5643 -74.5942 -90.8671 2.21285 8.29988 7.35904 -42.4196 38.6072 -125.317 -55.1402 -12.4518 23.5366 -79.6592 41.1857 116.476 -44.792 -3.83949 -6.20977 35.4123 -37.4898 -142.739 42.8798 13.4859 27.5025 26.4232 -26.805 -65.9506 27.132 0.574878 13.6263 
153.912 11.5805 146.603 3.4289 -11.2364 42.4271 -172.472 -1.42498 88.3443 -17.5255 23.8879 -2.00676 53.2109 -1.92012 8.34393 71.0479 56.7472 16.647 176.602 4.90118 83.4904 -32.0639 -15.6043 -6.35804 62.3064 0.11484 0.15913 77.1231 9.91591 17.8805 0.132203 8.96169 -85.16 8.75347 2.41049 9.42155 -2.94852 2.821 9.30782 -25.21 -0.517972 9.70866 -5.19735 -0.517987 9.70866 94.0942 -73.4284 -91.5412 0.550152 8.50945 6.69552 -41.436 37.7946 -125.8 -54.2756 -11.8989 22.7522 -78.8499 37.5364 116.038 -47.4122 -1.52203 -8.2828 41.6522 -44.2861 -139.034 38.886 12.3796 27.9562 27.4821 -26.1464 -63.9785 26.0945 1.0495 13.2029 
154.33 11.7889 146.322 3.00958 -12.6705 42.4914 -172.385 -2.62834 88.3854 -16.4566 24.5592 -1.95061 52.7569 -2.42051 7.64118 74.0182 57.876 13.5808 176.135 4.76551 83.2404 -32.5505 -14.3723 -5.97878 61.0025 0.702667 0.56679 81.0567 9.79792 15.4263 0.137287 8.99815 -85.43 8.70109 2.29918 8.89415 -2.99747 2.68688 8.78561 -25.2886 -0.467908 9.17237 -5.27598 -0.467908 9.17238 96.3236 -71.8728 -89.0295 -1.54817 6.39189 4.81889 -41.0131 36.234 -124.983 -55.7273 -11.4833 20.8959 -77.8547 32.7003 114.917 -48.0985 0.0322703 -11.2229 40.6109 -48.0078 -141.089 33.6852 10.1972 26.5676 29.118 -25.4193 -61.0892 24.9724 1.53021 12.7681 
